<svg width="150" height="52" viewBox="0 0 150 52" fill="none" xmlns="http://www.w3.org/2000/svg">
<path d="M69.9687 10.4102H65.4982L64.7584 12.5371H62.3945L66.4309 1.35882H69.0521L73.0884 12.5371H70.7084L69.9687 10.4102ZM69.3576 8.61911L67.7334 3.94949L66.1093 8.61911H69.3576Z" fill="white"/>
<path d="M76.8485 4.97297C77.138 4.54652 77.5346 4.20003 78.0385 3.9335C78.5531 3.66697 79.1374 3.53371 79.7914 3.53371C80.5525 3.53371 81.2387 3.72028 81.8497 4.09342C82.4715 4.46656 82.9593 4.99962 83.3131 5.6926C83.6776 6.37492 83.8599 7.16918 83.8599 8.07538C83.8599 8.98159 83.6776 9.78651 83.3131 10.4902C82.9593 11.1831 82.4715 11.7215 81.8497 12.1053C81.2387 12.4891 80.5525 12.681 79.7914 12.681C79.1267 12.681 78.5424 12.5531 78.0385 12.2972C77.5454 12.0307 77.1487 11.6895 76.8485 11.2737V12.5371H74.5972V0.703153H76.8485V4.97297ZM81.5603 8.07538C81.5603 7.54232 81.4477 7.08389 81.2226 6.70009C81.0082 6.30562 80.7187 6.00711 80.3542 5.80454C80.0004 5.60198 79.6145 5.5007 79.1964 5.5007C78.789 5.5007 78.403 5.60731 78.0385 5.82054C77.6847 6.0231 77.3953 6.32161 77.1701 6.71608C76.9557 7.11054 76.8485 7.57431 76.8485 8.10737C76.8485 8.64043 76.9557 9.10419 77.1701 9.49866C77.3953 9.89312 77.6847 10.197 78.0385 10.4102C78.403 10.6128 78.789 10.714 79.1964 10.714C79.6145 10.714 80.0004 10.6074 80.3542 10.3942C80.7187 10.181 81.0082 9.87713 81.2226 9.48267C81.4477 9.0882 81.5603 8.61911 81.5603 8.07538Z" fill="white"/>
<path d="M89.4518 12.681C88.5941 12.681 87.8223 12.4945 87.1361 12.1213C86.45 11.7375 85.9086 11.1991 85.5119 10.5061C85.126 9.81316 84.933 9.01357 84.933 8.10737C84.933 7.20116 85.1314 6.40157 85.528 5.70859C85.9354 5.01561 86.4875 4.48255 87.1844 4.10941C87.8812 3.72561 88.6585 3.53371 89.5161 3.53371C90.3738 3.53371 91.151 3.72561 91.8479 4.10941C92.5447 4.48255 93.0915 5.01561 93.4882 5.70859C93.8955 6.40157 94.0992 7.20116 94.0992 8.10737C94.0992 9.01357 93.8902 9.81316 93.4721 10.5061C93.0647 11.1991 92.5072 11.7375 91.7996 12.1213C91.1028 12.4945 90.3202 12.681 89.4518 12.681ZM89.4518 10.73C89.8592 10.73 90.2398 10.6341 90.5936 10.4422C90.9581 10.2396 91.2475 9.9411 91.4619 9.54663C91.6764 9.15217 91.7836 8.67241 91.7836 8.10737C91.7836 7.26513 91.5584 6.62013 91.1082 6.17236C90.6686 5.71392 90.1272 5.48471 89.484 5.48471C88.8407 5.48471 88.2993 5.71392 87.8598 6.17236C87.431 6.62013 87.2165 7.26513 87.2165 8.10737C87.2165 8.9496 87.4256 9.59994 87.8437 10.0584C88.2725 10.5061 88.8086 10.73 89.4518 10.73Z" fill="white"/>
<path d="M96.8924 2.62217C96.4958 2.62217 96.1634 2.49957 95.8954 2.25436C95.6381 1.99849 95.5095 1.68398 95.5095 1.31084C95.5095 0.937699 95.6381 0.628523 95.8954 0.383315C96.1634 0.127446 96.4958 -0.000488281 96.8924 -0.000488281C97.2891 -0.000488281 97.6161 0.127446 97.8734 0.383315C98.1414 0.628523 98.2754 0.937699 98.2754 1.31084C98.2754 1.68398 98.1414 1.99849 97.8734 2.25436C97.6161 2.49957 97.2891 2.62217 96.8924 2.62217ZM98.002 3.67763V12.5371H95.7507V3.67763H98.002Z" fill="white"/>
<path d="M102.848 5.51669V9.8025C102.848 10.101 102.917 10.3196 103.057 10.4582C103.207 10.5861 103.453 10.6501 103.796 10.6501H104.842V12.5371H103.427C101.529 12.5371 100.58 11.6202 100.58 9.78651V5.51669H99.5188V3.67763H100.58V1.48675H102.848V3.67763H104.842V5.51669H102.848Z" fill="white"/>
<path d="M107.603 2.62217C107.206 2.62217 106.874 2.49957 106.606 2.25436C106.348 1.99849 106.22 1.68398 106.22 1.31084C106.22 0.937699 106.348 0.628523 106.606 0.383315C106.874 0.127446 107.206 -0.000488281 107.603 -0.000488281C107.999 -0.000488281 108.326 0.127446 108.584 0.383315C108.852 0.628523 108.986 0.937699 108.986 1.31084C108.986 1.68398 108.852 1.99849 108.584 2.25436C108.326 2.49957 107.999 2.62217 107.603 2.62217ZM108.712 3.67763V12.5371H106.461V3.67763H108.712Z" fill="white"/>
<path d="M112.995 10.698H116.967V12.5371H110.438V10.73L114.33 5.51669H110.454V3.67763H116.919V5.48471L112.995 10.698Z" fill="white"/>
<path d="M67.0098 15.9128C68.1891 15.9128 69.2236 16.142 70.1134 16.6005C71.014 17.0589 71.7055 17.7146 72.1879 18.5675C72.6811 19.4097 72.9276 20.3905 72.9276 21.51C72.9276 22.6294 72.6811 23.6102 72.1879 24.4525C71.7055 25.284 71.014 25.929 70.1134 26.3875C69.2236 26.8459 68.1891 27.0751 67.0098 27.0751H63.086V15.9128H67.0098ZM66.9294 25.1721C68.1087 25.1721 69.0199 24.8523 69.6632 24.2126C70.3064 23.5729 70.628 22.672 70.628 21.51C70.628 20.3479 70.3064 19.4417 69.6632 18.7914C69.0199 18.1304 68.1087 17.7999 66.9294 17.7999H65.3374V25.1721H66.9294Z" fill="white"/>
<path d="M74.034 22.6134C74.034 21.7179 74.2108 20.9236 74.5646 20.2306C74.9291 19.5376 75.4169 19.0046 76.028 18.6314C76.6498 18.2583 77.3413 18.0717 78.1025 18.0717C78.7672 18.0717 79.3461 18.205 79.8392 18.4715C80.3431 18.7381 80.7451 19.0739 81.0453 19.479V18.2157H83.3127V27.0751H81.0453V25.7798C80.7558 26.1956 80.3538 26.5421 79.8392 26.8193C79.3353 27.0858 78.7511 27.2191 78.0864 27.2191C77.3359 27.2191 76.6498 27.0272 76.028 26.6433C75.4169 26.2595 74.9291 25.7212 74.5646 25.0282C74.2108 24.3245 74.034 23.5196 74.034 22.6134ZM81.0453 22.6454C81.0453 22.1017 80.9381 21.6379 80.7237 21.2541C80.5093 20.8596 80.2198 20.5611 79.8553 20.3586C79.4908 20.1453 79.0995 20.0387 78.6814 20.0387C78.2633 20.0387 77.8773 20.14 77.5235 20.3426C77.1698 20.5451 76.8803 20.8436 76.6552 21.2381C76.4408 21.6219 76.3335 22.0803 76.3335 22.6134C76.3335 23.1465 76.4408 23.6156 76.6552 24.0207C76.8803 24.4152 77.1698 24.719 77.5235 24.9322C77.8881 25.1454 78.274 25.2521 78.6814 25.2521C79.0995 25.2521 79.4908 25.1508 79.8553 24.9482C80.2198 24.735 80.5093 24.4365 80.7237 24.0527C80.9381 23.6582 81.0453 23.1891 81.0453 22.6454Z" fill="white"/>
<path d="M88.1328 20.0547V24.3405C88.1328 24.639 88.2025 24.8576 88.3418 24.9962C88.4919 25.1241 88.7385 25.1881 89.0816 25.1881H90.1268V27.0751H88.7117C86.8141 27.0751 85.8654 26.1583 85.8654 24.3245V20.0547H84.804V18.2157H85.8654V16.0248H88.1328V18.2157H90.1268V20.0547H88.1328Z" fill="white"/>
<path d="M91.1672 22.6134C91.1672 21.7179 91.3441 20.9236 91.6979 20.2306C92.0624 19.5376 92.5502 19.0046 93.1613 18.6314C93.7831 18.2583 94.4745 18.0717 95.2357 18.0717C95.9004 18.0717 96.4793 18.205 96.9725 18.4715C97.4763 18.7381 97.8784 19.0739 98.1786 19.479V18.2157H100.446V27.0751H98.1786V25.7798C97.8891 26.1956 97.4871 26.5421 96.9725 26.8193C96.4686 27.0858 95.8843 27.2191 95.2196 27.2191C94.4692 27.2191 93.7831 27.0272 93.1613 26.6433C92.5502 26.2595 92.0624 25.7212 91.6979 25.0282C91.3441 24.3245 91.1672 23.5196 91.1672 22.6134ZM98.1786 22.6454C98.1786 22.1017 98.0713 21.6379 97.8569 21.2541C97.6425 20.8596 97.3531 20.5611 96.9885 20.3586C96.624 20.1453 96.2327 20.0387 95.8146 20.0387C95.3965 20.0387 95.0106 20.14 94.6568 20.3426C94.303 20.5451 94.0136 20.8436 93.7884 21.2381C93.574 21.6219 93.4668 22.0803 93.4668 22.6134C93.4668 23.1465 93.574 23.6156 93.7884 24.0207C94.0136 24.4152 94.303 24.719 94.6568 24.9322C95.0213 25.1454 95.4072 25.2521 95.8146 25.2521C96.2327 25.2521 96.624 25.1508 96.9885 24.9482C97.3531 24.735 97.6425 24.4365 97.8569 24.0527C98.0713 23.6582 98.1786 23.1891 98.1786 22.6454Z" fill="white"/>
<path d="M65.3374 30.4509V41.6132H63.086V30.4509H65.3374Z" fill="white"/>
<path d="M72.4986 32.6257C73.5599 32.6257 74.4176 32.9616 75.0716 33.6332C75.7255 34.2942 76.0525 35.2217 76.0525 36.4158V41.6132H73.8012V36.7197C73.8012 36.016 73.6243 35.4776 73.2705 35.1045C72.9167 34.7207 72.4343 34.5288 71.8232 34.5288C71.2014 34.5288 70.7082 34.7207 70.3437 35.1045C69.9899 35.4776 69.8131 36.016 69.8131 36.7197V41.6132H67.5617V32.7537H69.8131V33.8571C70.1132 33.4733 70.4938 33.1748 70.9548 32.9616C71.4265 32.7377 71.9411 32.6257 72.4986 32.6257Z" fill="white"/>
<path d="M83.1303 32.6257C84.1917 32.6257 85.0493 32.9616 85.7033 33.6332C86.3572 34.2942 86.6842 35.2217 86.6842 36.4158V41.6132H84.4329V36.7197C84.4329 36.016 84.256 35.4776 83.9022 35.1045C83.5484 34.7207 83.066 34.5288 82.4549 34.5288C81.8331 34.5288 81.34 34.7207 80.9754 35.1045C80.6217 35.4776 80.4448 36.016 80.4448 36.7197V41.6132H78.1934V32.7537H80.4448V33.8571C80.745 33.4733 81.1255 33.1748 81.5865 32.9616C82.0582 32.7377 82.5728 32.6257 83.1303 32.6257Z" fill="white"/>
<path d="M92.7811 41.7571C91.9234 41.7571 91.1515 41.5705 90.4654 41.1974C89.7793 40.8136 89.2379 40.2752 88.8412 39.5822C88.4553 38.8892 88.2623 38.0896 88.2623 37.1834C88.2623 36.2772 88.4606 35.4776 88.8573 34.7846C89.2647 34.0917 89.8168 33.5586 90.5137 33.1855C91.2105 32.8017 91.9878 32.6098 92.8454 32.6098C93.7031 32.6098 94.4803 32.8017 95.1772 33.1855C95.874 33.5586 96.4208 34.0917 96.8174 34.7846C97.2248 35.4776 97.4285 36.2772 97.4285 37.1834C97.4285 38.0896 97.2195 38.8892 96.8014 39.5822C96.394 40.2752 95.8365 40.8136 95.1289 41.1974C94.4321 41.5705 93.6495 41.7571 92.7811 41.7571ZM92.7811 39.8061C93.1885 39.8061 93.5691 39.7101 93.9228 39.5182C94.2873 39.3157 94.5768 39.0171 94.7912 38.6227C95.0056 38.2282 95.1128 37.7485 95.1128 37.1834C95.1128 36.3412 94.8877 35.6962 94.4374 35.2484C93.9979 34.79 93.4565 34.5608 92.8133 34.5608C92.17 34.5608 91.6286 34.79 91.1891 35.2484C90.7602 35.6962 90.5458 36.3412 90.5458 37.1834C90.5458 38.0257 90.7549 38.676 91.173 39.1344C91.6018 39.5822 92.1378 39.8061 92.7811 39.8061Z" fill="white"/>
<path d="M102.795 39.5502L105.046 32.7537H107.442L104.146 41.6132H101.412L98.1312 32.7537H100.543L102.795 39.5502Z" fill="white"/>
<path d="M108.128 37.1514C108.128 36.2559 108.305 35.4616 108.658 34.7687C109.023 34.0757 109.511 33.5426 110.122 33.1695C110.744 32.7963 111.435 32.6098 112.196 32.6098C112.861 32.6098 113.44 32.743 113.933 33.0095C114.437 33.2761 114.839 33.6119 115.139 34.017V32.7537H117.406V41.6132H115.139V40.3178C114.85 40.7336 114.448 41.0801 113.933 41.3573C113.429 41.6238 112.845 41.7571 112.18 41.7571C111.43 41.7571 110.744 41.5652 110.122 41.1814C109.511 40.7976 109.023 40.2592 108.658 39.5662C108.305 38.8626 108.128 38.0576 108.128 37.1514ZM115.139 37.1834C115.139 36.6397 115.032 36.1759 114.817 35.7921C114.603 35.3977 114.314 35.0991 113.949 34.8966C113.585 34.6834 113.193 34.5767 112.775 34.5767C112.357 34.5767 111.971 34.678 111.617 34.8806C111.264 35.0832 110.974 35.3817 110.749 35.7761C110.535 36.1599 110.427 36.6184 110.427 37.1514C110.427 37.6845 110.535 38.1536 110.749 38.5587C110.974 38.9532 111.264 39.257 111.617 39.4702C111.982 39.6835 112.368 39.7901 112.775 39.7901C113.193 39.7901 113.585 39.6888 113.949 39.4862C114.314 39.273 114.603 38.9745 114.817 38.5907C115.032 38.1962 115.139 37.7271 115.139 37.1834Z" fill="white"/>
<path d="M122.227 34.5927V38.8785C122.227 39.1771 122.296 39.3956 122.436 39.5342C122.586 39.6621 122.832 39.7261 123.175 39.7261H124.221V41.6132H122.805C120.908 41.6132 119.959 40.6963 119.959 38.8626V34.5927H118.898V32.7537H119.959V30.5628H122.227V32.7537H124.221V34.5927H122.227Z" fill="white"/>
<path d="M126.982 31.6982C126.585 31.6982 126.253 31.5756 125.985 31.3304C125.727 31.0745 125.599 30.76 125.599 30.3869C125.599 30.0137 125.727 29.7046 125.985 29.4594C126.253 29.2035 126.585 29.0756 126.982 29.0756C127.378 29.0756 127.705 29.2035 127.963 29.4594C128.231 29.7046 128.365 30.0137 128.365 30.3869C128.365 30.76 128.231 31.0745 127.963 31.3304C127.705 31.5756 127.378 31.6982 126.982 31.6982ZM128.091 32.7537V41.6132H125.84V32.7537H128.091Z" fill="white"/>
<path d="M134.271 41.7571C133.414 41.7571 132.642 41.5705 131.956 41.1974C131.27 40.8136 130.728 40.2752 130.332 39.5822C129.946 38.8892 129.753 38.0896 129.753 37.1834C129.753 36.2772 129.951 35.4776 130.348 34.7846C130.755 34.0917 131.307 33.5586 132.004 33.1855C132.701 32.8017 133.478 32.6098 134.336 32.6098C135.193 32.6098 135.971 32.8017 136.668 33.1855C137.364 33.5586 137.911 34.0917 138.308 34.7846C138.715 35.4776 138.919 36.2772 138.919 37.1834C138.919 38.0896 138.71 38.8892 138.292 39.5822C137.884 40.2752 137.327 40.8136 136.619 41.1974C135.922 41.5705 135.14 41.7571 134.271 41.7571ZM134.271 39.8061C134.679 39.8061 135.059 39.7101 135.413 39.5182C135.778 39.3157 136.067 39.0171 136.282 38.6227C136.496 38.2282 136.603 37.7485 136.603 37.1834C136.603 36.3412 136.378 35.6962 135.928 35.2484C135.488 34.79 134.947 34.5608 134.304 34.5608C133.66 34.5608 133.119 34.79 132.679 35.2484C132.251 35.6962 132.036 36.3412 132.036 37.1834C132.036 38.0257 132.245 38.676 132.663 39.1344C133.092 39.5822 133.628 39.8061 134.271 39.8061Z" fill="white"/>
<path d="M145.507 32.6257C146.569 32.6257 147.426 32.9616 148.08 33.6332C148.734 34.2942 149.061 35.2217 149.061 36.4158V41.6132H146.81V36.7197C146.81 36.016 146.633 35.4776 146.279 35.1045C145.925 34.7207 145.443 34.5288 144.832 34.5288C144.21 34.5288 143.717 34.7207 143.352 35.1045C142.999 35.4776 142.822 36.016 142.822 36.7197V41.6132H140.57V32.7537H142.822V33.8571C143.122 33.4733 143.502 33.1748 143.963 32.9616C144.435 32.7377 144.95 32.6257 145.507 32.6257Z" fill="white"/>
<path d="M22.2127 6.69669C22.2127 9.96019 19.5671 12.6058 16.3036 12.6058C13.0401 12.6058 10.3945 9.96019 10.3945 6.69669C10.3945 3.43319 13.0401 0.787598 16.3036 0.787598C19.5671 0.787598 22.2127 3.43319 22.2127 6.69669Z" fill="#A0A0A0"/>
<path d="M36.3944 21.6664C36.3944 24.9299 33.7488 27.5755 30.4853 27.5755C27.2218 27.5755 24.5762 24.9299 24.5762 21.6664C24.5762 18.4029 27.2218 15.7573 30.4853 15.7573C33.7488 15.7573 36.3944 18.4029 36.3944 21.6664Z" fill="#A0A0A0"/>
<path d="M22.2112 35.8483C22.2112 38.6766 19.9183 40.9695 17.09 40.9695C14.2616 40.9695 11.9688 38.6766 11.9688 35.8483C11.9688 33.0199 14.2616 30.7271 17.09 30.7271C19.9183 30.7271 22.2112 33.0199 22.2112 35.8483Z" fill="#CECECE"/>
<path d="M8.03078 47.6663C8.03078 49.1892 6.79617 50.4238 5.2732 50.4238C3.75023 50.4238 2.51562 49.1892 2.51562 47.6663C2.51562 46.1433 3.75023 44.9087 5.2732 44.9087C6.79617 44.9087 8.03078 46.1433 8.03078 47.6663Z" fill="#E5E5E5"/>
<path d="M51.3631 35.8481C51.3631 39.1116 48.7175 41.7571 45.454 41.7571C42.1905 41.7571 39.5449 39.1116 39.5449 35.8481C39.5449 32.5846 42.1905 29.939 45.454 29.939C48.7175 29.939 51.3631 32.5846 51.3631 35.8481Z" fill="#A0A0A0"/>
<path d="M51.3631 7.48477C51.3631 10.7483 48.7175 13.3939 45.454 13.3939C42.1905 13.3939 39.5449 10.7483 39.5449 7.48477C39.5449 4.22127 42.1905 1.57568 45.454 1.57568C48.7175 1.57568 51.3631 4.22127 51.3631 7.48477Z" fill="#FD0A27"/>
<path d="M23.7891 0.787598H36.3951V13.3937H23.7891V0.787598Z" fill="#8C8B8B"/>
<path d="M39.5449 14.9692H52.151V27.5753H39.5449V14.9692Z" fill="#373737"/>
<path d="M11.9688 16.5449H21.4233V25.9995H11.9688V16.5449Z" fill="#BCBCBC"/>
<path d="M26.1523 30.7271H35.6069V40.1816H26.1523V30.7271Z" fill="#BCBCBC"/>
<path d="M0.939453 32.3027H9.60612V40.9694H0.939453V32.3027Z" fill="#DCDCDC"/>
<path d="M12.7578 43.333H21.4245V51.9997H12.7578V43.333Z" fill="#DCDCDC"/>
</svg>
